<svg xmlns="http://www.w3.org/2000/svg" viewBox="0 0 128 128" width="128" height="128" role="img" aria-label="cartcrft">
  <path d="M64 12 L109 38 L109 90 L64 116 L19 90 L19 38 Z" fill="#B5FF2E"/>
  <path d="M33 42 h10 a4 4 0 0 1 3.9 3.1 L48 51 H97 a3.5 3.5 0 0 1 3.4 4.4 l-5.8 21 a5.5 5.5 0 0 1 -5.3 4.1 H63 a5.5 5.5 0 0 1 -5.3 -4.1 L48.6 47.5 a1.5 1.5 0 0 0 -1.5 -1.1 H33 a2.2 2.2 0 0 1 0 -4.4 Z" fill="#0C0D0A"/>
  <circle cx="65" cy="90" r="7.5" fill="#0C0D0A"/>
  <circle cx="87" cy="90" r="7.5" fill="#0C0D0A"/>
</svg>
